<?xml version="1.0" encoding="utf-8"?>
<!-- Generator: Adobe Illustrator 21.1.0, SVG Export Plug-In . SVG Version: 6.00 Build 0)  -->
<svg version="1.1" id="Layer_1" xmlns="http://www.w3.org/2000/svg" xmlns:xlink="http://www.w3.org/1999/xlink" x="0px" y="0px"
	 viewBox="0 0 124.6 144" style="enable-background:new 0 0 124.6 144;" xml:space="preserve">
<style type="text/css">
	.st0{fill:#42C7F1;}
	.st1{opacity:0.4;}
	.st2{opacity:0.15;fill:#231F20;}
	.st3{fill:none;}
	.st4{clip-path:url(#SVGID_2_);}
	.st5{fill:#E90E8B;}
	.st6{fill:#BF1C7D;}
	.st7{fill:none;stroke:#BF1C7D;stroke-width:0.2805;stroke-linecap:round;stroke-linejoin:round;stroke-miterlimit:10;}
	.st8{opacity:7.000000e-02;fill:#231F20;}
	.st9{fill:#C31A7F;}
	.st10{fill:none;stroke:#E90E8B;stroke-width:0.8108;stroke-miterlimit:10;}
	.st11{fill:none;stroke:#BF1C7D;stroke-width:0.4054;stroke-linecap:round;stroke-linejoin:round;stroke-miterlimit:10;}
	.st12{fill:#00A594;}
	.st13{fill:#FFFFFF;}
</style>
<polygon class="st0" points="-4.9,32.8 62.1,-5.8 129,33 128.9,110.3 61.9,148.9 -5,110.1 "/>
<g class="st1">
	<path class="st2" d="M71.4,27.2L86.7,36c0.6,0.4,1.4-0.1,1.4-0.8V33c0-0.3-0.2-0.6-0.5-0.8l-15.3-8.8C71.7,23,71,23.5,71,24.2v2.2
		C71,26.7,71.1,27,71.4,27.2z"/>
	<path class="st2" d="M71.4,35.1l40.4,23.4c0.6,0.4,1.4-0.1,1.4-0.8v-4.2c0-0.3-0.2-0.6-0.5-0.8L72.3,29.3C71.7,29,71,29.4,71,30.1
		v4.2C71,34.6,71.1,34.9,71.4,35.1z"/>
	<path class="st2" d="M71.4,65.5l8.8,5.1c0.6,0.4,1.4-0.1,1.4-0.8v-2.2c0-0.3-0.2-0.6-0.5-0.8l-8.8-5.1c-0.6-0.4-1.4,0.1-1.4,0.8
		v2.2C71,65.1,71.1,65.4,71.4,65.5z"/>
	<path class="st2" d="M71.4,72.4l15.7,9.1c0.6,0.4,1.4-0.1,1.4-0.8v-3c0-0.3-0.2-0.6-0.5-0.8l-15.7-9.1c-0.6-0.4-1.4,0.1-1.4,0.8v3
		C71,71.9,71.1,72.2,71.4,72.4z"/>
	<path class="st2" d="M95.4,79.4l8.8,5.1c0.6,0.4,1.4-0.1,1.4-0.8v-2.2c0-0.3-0.2-0.6-0.5-0.8l-8.8-5.1c-0.6-0.4-1.4,0.1-1.4,0.8
		v2.2C94.9,79,95.1,79.3,95.4,79.4z"/>
	<path class="st2" d="M95.4,86.2l15.7,9.1c0.6,0.4,1.4-0.1,1.4-0.8v-3c0-0.3-0.2-0.6-0.5-0.8l-15.7-9.1c-0.6-0.4-1.4,0.1-1.4,0.8v3
		C94.9,85.8,95.1,86.1,95.4,86.2z"/>
	<path class="st2" d="M71.4,43.2L86.7,52c0.6,0.4,1.4-0.1,1.4-0.8V49c0-0.3-0.2-0.6-0.5-0.8l-15.3-8.8C71.7,39,71,39.5,71,40.2v2.2
		C71,42.7,71.1,43,71.4,43.2z"/>
	<path class="st2" d="M71.4,58.2l40.4,23.4c0.6,0.4,1.4-0.1,1.4-0.8V69.6c0-0.3-0.2-0.6-0.5-0.8L72.3,45.3C71.7,45,71,45.4,71,46.1
		v11.2C71,57.7,71.1,58,71.4,58.2z"/>
</g>
<polygon class="st3" points="0.1,35.7 62.1,0 124,35.9 123.9,107.4 61.9,143.1 0,107.2 "/>
<g>
	<defs>
		<polygon id="SVGID_1_" points="-4.9,32.8 62.1,-5.8 129,33 128.9,110.3 61.9,148.9 -5,110.1 		"/>
	</defs>
	<clipPath id="SVGID_2_">
		<use xlink:href="#SVGID_1_"  style="overflow:visible;"/>
	</clipPath>
	<g class="st4">
		<g>
			<polygon class="st5" points="59.8,54.1 42.9,63.9 42.9,74.6 60.9,85 77.9,75.2 77.9,64.5 			"/>
			<path class="st2" d="M60.9,85l17-9.8V64.3l-16.3,9.4c-0.4,0.2-0.7,0.7-0.7,1.2V85z"/>
			<g>
				<path class="st6" d="M60.9,85.4c-0.2,0-0.5-0.1-0.7-0.2L43,75.3c-0.4-0.3-0.7-0.7-0.7-1.2l0.1-9.7c0-0.5,0.3-0.9,0.7-1.1
					l16.1-9.3c0.4-0.2,0.9-0.2,1.4,0l0,0l17.2,9.9c0.4,0.2,0.7,0.7,0.7,1.2v9.7c0,0.5-0.3,0.9-0.7,1.2l-16.1,9.3
					C61.4,85.3,61.1,85.4,60.9,85.4z M59.8,54.7c-0.1,0-0.1,0-0.2,0.1l-16.1,9.3c-0.1,0.1-0.2,0.2-0.2,0.3l-0.1,9.7
					c0,0.2,0.1,0.3,0.2,0.4l17.2,9.9c0.1,0.1,0.3,0.1,0.4,0L77.2,75c0.1-0.1,0.2-0.2,0.2-0.3V65c0-0.1-0.1-0.3-0.2-0.3L60,54.7
					C60,54.7,59.9,54.7,59.8,54.7z"/>
			</g>
			<path class="st7" d="M77.9,64.5l-16.4,9.5c-0.4,0.2-0.6,0.6-0.6,1v10"/>
			<path class="st8" d="M68.6,61.6l4.8,2.8c0.2,0.1,0.2,0.4,0,0.5l-5.9,3.3c-0.3,0.2-0.6-0.2-0.4-0.4c0.8-1.3,1.8-3.6,1.1-5.9
				C68.1,61.7,68.4,61.5,68.6,61.6z"/>
			<g>
				<path class="st6" d="M59.8,74.2c-0.1,0-0.2,0-0.2-0.1l-15.7-9.1c-0.2-0.1-0.3-0.4-0.2-0.7c0.1-0.2,0.4-0.3,0.7-0.2L60,73.3
					c0.2,0.1,0.3,0.4,0.2,0.7C60.1,74.1,60,74.2,59.8,74.2z"/>
			</g>
		</g>
		<g>
			<polygon class="st5" points="39.1,66.6 22.1,76.4 22.1,87.1 40.1,97.5 57.1,87.7 57.1,77 			"/>
			<path class="st2" d="M40.1,97.5l17-9.8V76.8l-16.3,9.4c-0.4,0.2-0.7,0.7-0.7,1.2V97.5z"/>
			<g>
				<path class="st6" d="M40.1,97.9c-0.2,0-0.5-0.1-0.7-0.2l-17.2-9.9c-0.4-0.3-0.7-0.7-0.7-1.2l0.1-9.7c0-0.5,0.3-0.9,0.7-1.1
					l16.1-9.3c0.4-0.2,0.9-0.2,1.4,0l0,0l17.2,9.9c0.4,0.2,0.7,0.7,0.7,1.2v9.7c0,0.5-0.3,0.9-0.7,1.2l-16.1,9.3
					C40.6,97.8,40.4,97.9,40.1,97.9z M39.1,67.2c-0.1,0-0.1,0-0.2,0.1l-16.1,9.3c-0.1,0.1-0.2,0.2-0.2,0.3l-0.1,9.7
					c0,0.2,0.1,0.3,0.2,0.4l17.2,9.9c0.1,0.1,0.3,0.1,0.4,0l16.1-9.3c0.1-0.1,0.2-0.2,0.2-0.3v-9.7c0-0.1-0.1-0.3-0.2-0.3l-17.2-9.9
					C39.2,67.2,39.2,67.2,39.1,67.2z"/>
			</g>
			<path class="st7" d="M57.1,77l-16.4,9.5c-0.4,0.2-0.6,0.6-0.6,1v10"/>
			<path class="st8" d="M47.9,74.1l4.8,2.8c0.2,0.1,0.2,0.4,0,0.5l-5.9,3.3c-0.3,0.2-0.6-0.2-0.4-0.4c0.8-1.3,1.8-3.6,1.1-5.9
				C47.4,74.2,47.7,74,47.9,74.1z"/>
			<g>
				<path class="st6" d="M39,86.7c-0.1,0-0.2,0-0.2-0.1l-15.7-9.1c-0.2-0.1-0.3-0.4-0.2-0.7s0.4-0.3,0.7-0.2l15.7,9.1
					c0.2,0.1,0.3,0.4,0.2,0.7C39.4,86.6,39.2,86.7,39,86.7z"/>
			</g>
		</g>
		<g>
			<polygon class="st5" points="19.3,78.1 2.4,87.9 2.4,98.6 20.4,109 37.4,99.2 37.4,88.5 			"/>
			<path class="st2" d="M20.4,109l17-9.8V88.3l-16.3,9.4c-0.4,0.2-0.7,0.7-0.7,1.2V109z"/>
			<g>
				<path class="st6" d="M20.4,109.4c-0.2,0-0.5-0.1-0.7-0.2L2.5,99.3C2,99,1.8,98.6,1.8,98l0.1-9.7c0-0.5,0.3-0.9,0.7-1.1l16.1-9.3
					c0.4-0.2,0.9-0.2,1.4,0l0,0l17.2,9.9c0.4,0.2,0.7,0.7,0.7,1.2v9.7c0,0.5-0.3,0.9-0.7,1.2l-16.1,9.3
					C20.9,109.3,20.6,109.4,20.4,109.4z M19.3,78.7c-0.1,0-0.1,0-0.2,0.1L3,88.1c-0.1,0.1-0.2,0.2-0.2,0.3l-0.1,9.7
					c0,0.2,0.1,0.3,0.2,0.4l17.2,9.9c0.1,0.1,0.3,0.1,0.4,0L36.7,99c0.1-0.1,0.2-0.2,0.2-0.3V89c0-0.1-0.1-0.3-0.2-0.3l-17.2-9.9
					C19.5,78.7,19.4,78.7,19.3,78.7z"/>
			</g>
			<path class="st7" d="M37.4,88.5L21,97.9c-0.4,0.2-0.6,0.6-0.6,1v10"/>
			<path class="st8" d="M28.1,85.6l4.8,2.8c0.2,0.1,0.2,0.4,0,0.5L27,92.3c-0.3,0.2-0.6-0.2-0.4-0.4c0.8-1.3,1.8-3.6,1.1-5.9
				C27.6,85.7,27.9,85.5,28.1,85.6z"/>
			<g>
				<path class="st6" d="M19.3,98.2c-0.1,0-0.2,0-0.2-0.1L3.4,89.1c-0.2-0.1-0.3-0.4-0.2-0.7s0.4-0.3,0.7-0.2l15.7,9.1
					c0.2,0.1,0.3,0.4,0.2,0.7C19.6,98.1,19.5,98.2,19.3,98.2z"/>
			</g>
		</g>
		<g>
			<polygon class="st5" points="-0.4,89.5 -17.4,99.3 -17.4,110 0.6,120.4 17.6,110.6 17.6,99.9 			"/>
			<path class="st2" d="M0.6,120.4l17-9.8V99.7l-16.3,9.4c-0.4,0.2-0.7,0.7-0.7,1.2V120.4z"/>
			<g>
				<path class="st6" d="M0.6,120.8c-0.2,0-0.5-0.1-0.7-0.2l-17.2-9.9c-0.4-0.3-0.7-0.7-0.7-1.2l0.1-9.7c0-0.5,0.3-0.9,0.7-1.2
					l16.1-9.3c0.4-0.2,0.9-0.2,1.4,0l17.2,9.9c0.4,0.2,0.7,0.7,0.7,1.2v9.7c0,0.5-0.3,0.9-0.7,1.2l-16.1,9.3
					C1.1,120.7,0.9,120.8,0.6,120.8z M-0.4,90.1c-0.1,0-0.1,0-0.2,0.1l-16.1,9.3c-0.1,0.1-0.2,0.2-0.2,0.3l-0.1,9.7
					c0,0.2,0.1,0.3,0.2,0.4l17.2,9.9c0.1,0.1,0.3,0.1,0.4,0l16.1-9.3c0.1-0.1,0.2-0.2,0.2-0.3v-9.7c0-0.1-0.1-0.3-0.2-0.3l-17.2-9.9
					c0,0,0,0,0,0C-0.3,90.1-0.3,90.1-0.4,90.1z"/>
			</g>
			<path class="st7" d="M17.6,99.9l-16.4,9.5c-0.4,0.2-0.6,0.6-0.6,1v10"/>
			<path class="st8" d="M8.4,97.1l4.8,2.8c0.2,0.1,0.2,0.4,0,0.5l-5.9,3.3c-0.3,0.2-0.6-0.2-0.4-0.4c0.8-1.3,1.8-3.6,1.1-5.9
				C7.9,97.1,8.2,96.9,8.4,97.1z"/>
			<g>
				<path class="st6" d="M-0.5,109.6c-0.1,0-0.2,0-0.2-0.1l-15.7-9.1c-0.2-0.1-0.3-0.4-0.2-0.7c0.1-0.2,0.4-0.3,0.7-0.2l15.7,9.1
					c0.2,0.1,0.3,0.4,0.2,0.7C-0.1,109.5-0.3,109.6-0.5,109.6z"/>
			</g>
		</g>
		<path class="st2" d="M56,62.3c0.2-0.5,0.9-0.9,1.7-0.8c0.9,0.1,1.5,0.8,1.2,1.6c-0.3,0.8-1.4,1.1-2.2,0.7
			C55.9,63.5,55.7,62.8,56,62.3z"/>
		<g>
			<polygon class="st5" points="82.7,67.7 133.3,96.9 133.3,104.9 61.7,146.3 11.1,117.1 11.1,109.1 			"/>
			<polygon class="st6" points="82.4,75.9 124.2,100 129,97.2 82.4,70.3 			"/>
			<polygon class="st2" points="20.3,111.9 82.4,76 82.4,70 15.2,108.8 			"/>
			<path class="st2" d="M24.1,115.3c-0.1,1.2,0.5,2.3,1.9,3.1c1.9,1.1,4.7,1.4,7.3,0.9l0,0l32.2-9.5v-6.5l-32.2,9.5l0,0
				c-2.6,0.5-5.4,0.2-7.3-0.9c-1.2-0.7-1.9-1.7-1.9-2.7L24.1,115.3z"/>
			<path class="st5" d="M110.4,95.5c-0.2-4.1-2.7-8-7.8-10.9c-11.6-6.7-31.8-5.8-45.1,1.9c-7.2,4.1-10.9,9.4-11,14.5v7.2
				c-0.1,4.3,2.4,8.5,7.8,11.6c11.6,6.7,31.8,5.8,45.1-1.9c7.5-4.3,11.3-9.9,11-15.2V95.5z"/>
			<polygon class="st5" points="11.1,109.1 61.7,138.3 61.8,145.9 11.1,117.1 			"/>
			<path class="st2" d="M110.4,95.5c-0.2-4.1-2.7-8-7.8-10.9c-11.6-6.7-31.8-5.8-45.1,1.9c-7.2,4.1-10.9,9.4-11,14.5v7.2
				c-0.1,4.3,2.4,8.5,7.8,11.6c11.6,6.7,31.8,5.8,45.1-1.9c7.5-4.3,11.3-9.9,11-15.2V95.5z"/>
			<path class="st5" d="M57.4,86.5c13.4-7.7,33.6-8.6,45.1-1.9c11.6,6.7,10.1,18.3-3.2,26.1s-33.6,8.6-45.1,1.9
				c-4.6-2.6-7.2-5.7-7.8-9.4C45.5,97.6,49.4,91.2,57.4,86.5z"/>
			<g>
				<path class="st6" d="M73.8,117.6c-7.4,0-14.5-1.5-19.8-4.6c-1.7-1-3.2-2.1-4.4-3.3c-0.2-0.2-0.2-0.5,0-0.7
					c0.2-0.2,0.5-0.2,0.7,0c1.1,1.2,2.5,2.2,4.2,3.2c11.4,6.6,31.4,5.7,44.6-1.9c6.9-4,10.8-9.2,10.8-14.3c0-4.2-2.7-8.1-7.6-10.9
					c-11.4-6.6-31.4-5.8-44.6,1.9c-6.8,4-10.8,9.2-10.8,14.3c0,0.3-0.2,0.5-0.5,0.5c0,0,0,0,0,0c-0.3,0-0.5-0.2-0.5-0.5
					c0-5.5,4.1-11,11.3-15.1c13.5-7.8,33.9-8.6,45.6-1.9c5.2,3,8.1,7.2,8.1,11.8c0,5.5-4.1,11-11.3,15.2
					C92.2,115.4,82.7,117.6,73.8,117.6z"/>
			</g>
			<path class="st6" d="M73,95.5c3.5-2,8.7-2.2,11.7-0.5c3,1.7,2.6,4.7-0.8,6.7c-3.5,2-8.7,2.2-11.7,0.5
				C69.1,100.5,69.5,97.5,73,95.5z"/>
			<g>
				<path class="st5" d="M33.3,112.7l32.2-9.5c0.4-0.1,0.3-0.7-0.1-0.7L31.7,104c-1.7,0.2-3.5,0.7-4.9,1.5c-3.3,1.9-3.6,4.7-0.8,6.4
					C27.9,113,30.7,113.2,33.3,112.7L33.3,112.7z"/>
				<path class="st9" d="M30.8,113.5c-1.9,0-3.7-0.4-5-1.2c-1.4-0.8-2.2-1.9-2.2-3.2c0-1.5,1.1-2.9,2.9-4c1.4-0.8,3.2-1.4,5.1-1.6
					l33.7-1.5c0.4,0,0.8,0.3,0.9,0.7s-0.2,0.8-0.6,1l-31.7,9.4l0,0.1l-0.5,0.1C32.5,113.4,31.6,113.5,30.8,113.5z M64.3,103.1
					l-32.6,1.5c-1.7,0.2-3.4,0.7-4.7,1.4c-1.6,0.9-2.4,2-2.4,3.2c0,0.9,0.6,1.7,1.7,2.3c1.7,1,4.3,1.3,6.9,0.8l0,0L64.3,103.1z"/>
			</g>
			<path class="st10" d="M24.1,109.2"/>
			<path class="st10" d="M24.1,115.3"/>
			<path class="st5" d="M133.3,96.9l-1.5-0.9L84.6,68.8l0.1,0l-1.9-1.1l0,0l-0.1-0.1L80.2,69l0.1,0.1l-69.3,40l48.7,28.1l0,0
				l0.8,0.5l1.2,0.7L64,137l-0.1-0.1L133.3,96.9z M15.3,108.8l67-38.7l46.8,27l-67,38.7L15.3,108.8z"/>
			<polygon class="st5" points="61.7,146.3 133.3,104.9 133.3,96.9 61.7,138.3 			"/>
			<path class="st2" d="M61.7,146.3l71.6-41.4v-8l-70.5,40.8c-0.6,0.4-1,1.1-1,1.8V146.3z"/>
			<g>
				<path class="st6" d="M59.7,137.4c0,0-0.1,0-0.1,0l-46.7-27c-0.1-0.1-0.1-0.2-0.1-0.3s0.2-0.1,0.3-0.1l46.7,27
					c0.1,0.1,0.1,0.2,0.1,0.3C59.8,137.3,59.8,137.4,59.7,137.4z"/>
			</g>
			<path class="st11" d="M133.3,96.9c-0.5-0.1-61.1,35.3-70.4,40.7c-0.7,0.4-1.2,1.2-1.2,2.1v6.7"/>
			<g>
				<path class="st6" d="M15.4,108.9c-0.1,0-0.1,0-0.2-0.1c-0.1-0.1,0-0.2,0.1-0.3l67-38.4c0.1,0,0.1,0,0.2,0l46.2,26.6
					c0.1,0.1,0.1,0.2,0.1,0.3c-0.1,0.1-0.2,0.1-0.3,0.1L82.4,70.5l-66.9,38.4C15.5,108.9,15.5,108.9,15.4,108.9z"/>
			</g>
			<g>
				<path class="st6" d="M61.7,146.6c-0.6,0-1.1-0.1-1.6-0.4L12,118.4c-1-0.6-1.6-1.7-1.6-2.9v-5c0-1.2,0.6-2.3,1.6-2.9l69.1-39.8
					c1-0.6,2.3-0.6,3.3,0l48,27.7c1,0.6,1.6,1.7,1.6,2.8l0,5c0,1.2-0.6,2.3-1.6,2.9l-69,39.9C62.9,146.5,62.3,146.6,61.7,146.6z
					 M82.7,68.8c-0.3,0-0.6,0.1-0.9,0.2l0,0l-69.1,39.8c-0.6,0.3-0.9,1-0.9,1.6v5c0,0.7,0.4,1.3,0.9,1.6L60.8,145
					c0.6,0.3,1.3,0.3,1.9,0l69-39.9c0.6-0.3,0.9-1,0.9-1.6l0-5c0-0.7-0.4-1.3-0.9-1.6l-48-27.7C83.4,68.9,83,68.8,82.7,68.8z
					 M81.4,68.5L81.4,68.5L81.4,68.5z"/>
			</g>
			<g>
				<path class="st6" d="M49.9,109.7c-0.2,0-0.4-0.1-0.5-0.4c-0.1-0.3,0.1-0.5,0.3-0.6l15.4-4.5v-1.3c0-0.3,0.2-0.5,0.5-0.5
					s0.5,0.2,0.5,0.5v1.7c0,0.2-0.1,0.4-0.4,0.5l-15.8,4.6C50,109.7,50,109.7,49.9,109.7z"/>
			</g>
			<path class="st11" d="M79.6,123.9c-3.4,0.1-8.8,0.8-18.1-1.3c-9.3-2.1-13-8-13-8l-13.4,4"/>
			<line class="st11" x1="48.6" y1="109.5" x2="48.6" y2="114"/>
		</g>
		<path class="st2" d="M38.8,76.7c0.2-0.5,0.9-0.9,1.7-0.8c0.9,0.1,1.5,0.8,1.2,1.6c-0.3,0.8-1.4,1.1-2.2,0.7
			C38.8,77.9,38.6,77.2,38.8,76.7z"/>
		<g>
			<path class="st12" d="M39.9,77.6c-0.6,0-1-0.4-1-1c0-5.7,1.7-11.1,4.8-15.2c2.7-3.6,6.3-5.9,9.3-5.9c1.5,0,2.8,0.6,3.7,1.7
				c0.9,1.1,1.4,2.8,1.4,4.8c0,0.6-0.4,1-1,1s-1-0.4-1-1c0-1.6-0.3-2.8-0.9-3.6c-0.5-0.6-1.2-1-2.2-1c-4.3,0-12.1,7.2-12.1,19.1
				C40.9,77.2,40.5,77.6,39.9,77.6z"/>
		</g>
		<path class="st2" d="M58.9,64.1c0.2-0.5,0.9-0.9,1.7-0.8c0.9,0.1,1.5,0.8,1.2,1.6c-0.3,0.8-1.4,1.1-2.2,0.7
			C58.9,65.3,58.7,64.7,58.9,64.1z"/>
		<path class="st2" d="M35.8,75.2c0.2-0.5,0.9-0.9,1.7-0.8c0.9,0.1,1.5,0.8,1.2,1.6c-0.3,0.8-1.4,1.1-2.2,0.7
			C35.8,76.4,35.6,75.7,35.8,75.2z"/>
		<path class="st2" d="M18.7,89.3c0.2-0.5,0.9-0.9,1.7-0.8c0.9,0.1,1.5,0.8,1.2,1.6c-0.3,0.8-1.4,1.1-2.2,0.7
			C18.7,90.5,18.5,89.9,18.7,89.3z"/>
		<path class="st2" d="M15.7,87.4c0.2-0.5,0.9-0.9,1.7-0.8c0.9,0.1,1.5,0.8,1.2,1.6c-0.3,0.8-1.4,1.1-2.2,0.7
			C15.7,88.6,15.5,88,15.7,87.4z"/>
		<path class="st2" d="M-1.3,98.8c0.2-0.5,0.9-0.9,1.7-0.8c0.9,0.1,1.5,0.8,1.2,1.6c-0.3,0.8-1.4,1.1-2.2,0.7
			C-1.3,100-1.5,99.3-1.3,98.8z"/>
		<g>
			<path class="st12" d="M78.6,99.5c-0.6,0-1-0.4-1-1c0-24.1-10.1-38.7-14.5-38.7c-0.3,0-0.8,0.1-1.2,0.8c-0.3,0.5-0.6,1.5-0.6,3.4
				c0,0.6-0.4,1-1,1s-1-0.4-1-1c0-1.9,0.3-3.3,0.9-4.4c0.7-1.1,1.7-1.8,2.9-1.8c5.8,0,16.5,15.5,16.5,40.7
				C79.6,99.1,79.2,99.5,78.6,99.5z"/>
		</g>
		<g>
			<path class="st12" d="M19.8,90c-0.6,0-1-0.4-1-1c0-12.7,8.2-20.8,13.9-20.8c1.6,0,2.9,0.6,3.8,1.7c0.9,1.2,1.4,2.8,1.4,4.9
				c0,0.6-0.4,1-1,1s-1-0.4-1-1c0-1.6-0.3-2.9-1-3.6c-0.5-0.7-1.3-1-2.2-1c-4.7,0-11.9,7.5-11.9,18.8C20.8,89.6,20.3,90,19.8,90z"/>
		</g>
		<g>
			<path class="st12" d="M-0.2,99.7c-0.6,0-1-0.4-1-1c0-12.3,7.6-18.8,13.1-18.8c1.8,0,3.3,0.7,4.4,1.9c1.1,1.3,1.7,3.2,1.7,5.4
				c0,0.6-0.4,1-1,1s-1-0.4-1-1c0-1.8-0.4-3.2-1.2-4.1c-0.7-0.8-1.7-1.2-2.8-1.2c-4.5,0-11.1,6-11.1,16.8
				C0.8,99.2,0.3,99.7-0.2,99.7z"/>
		</g>
	</g>
</g>
<g>
	<path class="st13" d="M13.7,58.6v-9.9h3.7c0.8,0,1.5,0.1,2.2,0.2c0.7,0.2,1.3,0.4,1.9,0.8c0.5,0.4,1,0.9,1.3,1.5s0.5,1.4,0.5,2.4
		c0,0.9-0.2,1.6-0.5,2.3s-0.7,1.2-1.3,1.6c-0.5,0.4-1.1,0.7-1.8,0.9c-0.7,0.2-1.4,0.3-2.1,0.3H13.7z M16.9,51.5v4.2h0.6
		c0.8,0,1.4-0.2,1.8-0.5c0.4-0.3,0.6-0.9,0.6-1.7c0-0.6-0.2-1.1-0.6-1.5c-0.4-0.4-1-0.5-1.7-0.5H16.9z"/>
	<path class="st13" d="M28.5,53.9c0-0.2-0.1-0.4-0.2-0.5s-0.4-0.2-0.6-0.2c-0.3,0-0.6,0.1-0.8,0.2s-0.5,0.3-0.7,0.4l-1.6-1.6
		c0.4-0.4,1-0.8,1.6-1c0.6-0.2,1.3-0.4,1.9-0.4c0.7,0,1.3,0.1,1.7,0.3c0.5,0.2,0.8,0.5,1.1,0.8c0.3,0.3,0.5,0.7,0.6,1.2
		c0.1,0.5,0.2,0.9,0.2,1.5v3.9h-2.9V58h0c-0.2,0.3-0.5,0.5-0.8,0.6c-0.3,0.1-0.7,0.2-1,0.2c-0.3,0-0.6,0-0.9-0.1
		c-0.3-0.1-0.6-0.2-0.8-0.4c-0.2-0.2-0.5-0.4-0.6-0.7s-0.2-0.7-0.2-1.1c0-0.5,0.1-0.9,0.4-1.3c0.3-0.3,0.6-0.6,1-0.8
		c0.4-0.2,0.9-0.3,1.4-0.4C27.5,54,28,54,28.5,53.9L28.5,53.9z M28.5,55.6c-0.5,0-0.9,0.1-1.1,0.2c-0.3,0.1-0.4,0.3-0.4,0.6
		c0,0.1,0,0.2,0.1,0.3c0,0.1,0.1,0.1,0.2,0.2c0.1,0,0.2,0.1,0.2,0.1c0.1,0,0.2,0,0.2,0c0.3,0,0.6-0.1,0.7-0.3
		c0.2-0.2,0.3-0.4,0.3-0.8v-0.3H28.5z"/>
	<path class="st13" d="M35.9,58.8c-1,0-1.7-0.2-2.2-0.6s-0.7-1.1-0.7-2v-2.6h-1v-2.3h1v-1.7h3.1v1.7h1.6v2.3h-1.6v2
		c0,0.4,0.1,0.6,0.2,0.7c0.2,0.1,0.4,0.2,0.6,0.2c0.1,0,0.2,0,0.3,0c0.1,0,0.2,0,0.3-0.1v2.2c-0.2,0.1-0.4,0.1-0.7,0.2
		C36.5,58.8,36.2,58.8,35.9,58.8z"/>
	<path class="st13" d="M42.5,53.9c0-0.2-0.1-0.4-0.2-0.5s-0.4-0.2-0.6-0.2c-0.3,0-0.6,0.1-0.8,0.2s-0.5,0.3-0.7,0.4l-1.6-1.6
		c0.4-0.4,1-0.8,1.6-1c0.6-0.2,1.3-0.4,1.9-0.4c0.7,0,1.3,0.1,1.7,0.3c0.5,0.2,0.8,0.5,1.1,0.8c0.3,0.3,0.5,0.7,0.6,1.2
		c0.1,0.5,0.2,0.9,0.2,1.5v3.9h-2.9V58h0c-0.2,0.3-0.5,0.5-0.8,0.6c-0.3,0.1-0.7,0.2-1,0.2c-0.3,0-0.6,0-0.9-0.1
		c-0.3-0.1-0.6-0.2-0.8-0.4c-0.2-0.2-0.5-0.4-0.6-0.7s-0.2-0.7-0.2-1.1c0-0.5,0.1-0.9,0.4-1.3c0.3-0.3,0.6-0.6,1-0.8
		c0.4-0.2,0.9-0.3,1.4-0.4C41.5,54,42,54,42.5,53.9L42.5,53.9z M42.5,55.6c-0.5,0-0.9,0.1-1.1,0.2c-0.3,0.1-0.4,0.3-0.4,0.6
		c0,0.1,0,0.2,0.1,0.3c0,0.1,0.1,0.1,0.2,0.2c0.1,0,0.2,0.1,0.2,0.1c0.1,0,0.2,0,0.2,0c0.3,0,0.6-0.1,0.7-0.3
		c0.2-0.2,0.3-0.4,0.3-0.8v-0.3H42.5z"/>
	<path class="st13" d="M55.1,58.6h-3.3v-7.1h-2.4v-2.8h8.2v2.8h-2.4V58.6z"/>
	<path class="st13" d="M65.2,54.9c0,0.6-0.1,1.2-0.3,1.7c-0.2,0.5-0.5,0.9-0.9,1.3c-0.4,0.3-0.8,0.6-1.3,0.8s-1,0.3-1.6,0.3
		c-0.6,0-1.1-0.1-1.6-0.3s-1-0.4-1.3-0.8c-0.4-0.3-0.7-0.8-0.9-1.3c-0.2-0.5-0.3-1.1-0.3-1.7c0-0.6,0.1-1.2,0.3-1.7
		c0.2-0.5,0.5-0.9,0.9-1.2s0.8-0.6,1.3-0.8c0.5-0.2,1-0.3,1.6-0.3c0.6,0,1.1,0.1,1.6,0.3c0.5,0.2,1,0.4,1.3,0.8s0.7,0.7,0.9,1.2
		C65.1,53.7,65.2,54.3,65.2,54.9z M61,53.7c-0.4,0-0.6,0.1-0.9,0.4s-0.3,0.5-0.3,0.9c0,0.3,0.1,0.6,0.3,0.9c0.2,0.2,0.5,0.4,0.9,0.4
		c0.4,0,0.6-0.1,0.9-0.4s0.3-0.5,0.3-0.9c0-0.3-0.1-0.6-0.3-0.9C61.6,53.8,61.3,53.7,61,53.7z"/>
	<path class="st13" d="M66.1,54.9c0-0.5,0.1-0.9,0.2-1.4c0.1-0.5,0.4-0.9,0.6-1.2c0.3-0.4,0.6-0.7,1-0.9c0.4-0.2,0.9-0.3,1.5-0.3
		c0.4,0,0.8,0.1,1.2,0.2s0.7,0.4,0.9,0.7h0v-0.7h3v6.6c0,0.8-0.1,1.5-0.4,2c-0.3,0.5-0.6,1-1,1.3s-0.9,0.5-1.5,0.7
		C71.1,61.9,70.6,62,70,62c-0.7,0-1.4-0.1-2.1-0.3s-1.3-0.5-1.8-0.8l1.4-2.1c0.4,0.3,0.7,0.5,1.1,0.6c0.4,0.1,0.8,0.2,1.1,0.2
		c0.2,0,0.5,0,0.7-0.1c0.2-0.1,0.4-0.1,0.6-0.3c0.2-0.1,0.3-0.3,0.4-0.4c0.1-0.2,0.1-0.4,0.1-0.6v-0.3h0c-0.2,0.2-0.4,0.4-0.8,0.5
		c-0.3,0.2-0.7,0.2-1.2,0.2c-0.6,0-1.1-0.1-1.5-0.3c-0.4-0.2-0.8-0.5-1-0.8c-0.3-0.3-0.5-0.7-0.6-1.2C66.1,55.9,66.1,55.4,66.1,54.9
		z M69.1,54.9c0,0.4,0.1,0.7,0.3,0.9c0.2,0.2,0.5,0.4,0.9,0.4c0.4,0,0.7-0.1,0.9-0.4c0.2-0.2,0.3-0.5,0.3-0.9c0-0.3-0.1-0.6-0.3-0.9
		c-0.2-0.2-0.5-0.4-0.9-0.4c-0.4,0-0.7,0.1-0.9,0.4S69.1,54.6,69.1,54.9z"/>
	<path class="st13" d="M83.8,55c0,0.1,0,0.2,0,0.4s0,0.2,0,0.3h-5c0,0.1,0.1,0.2,0.1,0.3c0.1,0.1,0.2,0.2,0.3,0.3
		c0.1,0.1,0.2,0.1,0.4,0.2c0.1,0,0.3,0.1,0.4,0.1c0.3,0,0.5-0.1,0.7-0.2c0.2-0.1,0.4-0.2,0.5-0.4l2.3,1.2c-0.3,0.5-0.8,1-1.4,1.3
		c-0.6,0.3-1.3,0.5-2.2,0.5c-0.5,0-1-0.1-1.6-0.3c-0.5-0.2-1-0.4-1.3-0.7c-0.4-0.3-0.7-0.7-0.9-1.2s-0.3-1.1-0.3-1.7
		c0-0.6,0.1-1.2,0.3-1.6c0.2-0.5,0.5-0.9,0.9-1.2c0.4-0.3,0.8-0.6,1.3-0.8c0.5-0.2,1-0.3,1.6-0.3c0.6,0,1.1,0.1,1.6,0.3
		c0.5,0.2,0.9,0.5,1.2,0.8c0.3,0.4,0.6,0.8,0.8,1.3C83.7,53.9,83.8,54.4,83.8,55z M81,53.9c0-0.3-0.1-0.5-0.3-0.6
		C80.6,53.1,80.3,53,80,53c-0.4,0-0.6,0.1-0.8,0.3c-0.2,0.2-0.3,0.4-0.3,0.6H81z"/>
	<path class="st13" d="M88.2,58.8c-1,0-1.7-0.2-2.2-0.6s-0.7-1.1-0.7-2v-2.6h-1v-2.3h1v-1.7h3.1v1.7H90v2.3h-1.6v2
		c0,0.4,0.1,0.6,0.2,0.7c0.2,0.1,0.4,0.2,0.6,0.2c0.1,0,0.2,0,0.3,0c0.1,0,0.2,0,0.3-0.1v2.2c-0.2,0.1-0.4,0.1-0.7,0.2
		C88.8,58.8,88.5,58.8,88.2,58.8z"/>
	<path class="st13" d="M96.1,51c0.5,0,0.9,0.1,1.3,0.3c0.3,0.2,0.6,0.4,0.8,0.7s0.3,0.6,0.4,1c0.1,0.4,0.1,0.7,0.1,1.1v4.5h-3.2
		v-3.9c0-0.4-0.1-0.6-0.2-0.8c-0.1-0.1-0.3-0.2-0.5-0.2c-0.2,0-0.4,0.1-0.5,0.2c-0.1,0.2-0.2,0.4-0.2,0.8v3.9h-3.2V48h3.2v4h0
		c0.2-0.3,0.5-0.5,0.8-0.7C95.2,51.1,95.6,51,96.1,51z"/>
	<path class="st13" d="M107.9,55c0,0.1,0,0.2,0,0.4s0,0.2,0,0.3h-5c0,0.1,0.1,0.2,0.1,0.3c0.1,0.1,0.2,0.2,0.3,0.3
		c0.1,0.1,0.2,0.1,0.4,0.2c0.1,0,0.3,0.1,0.4,0.1c0.3,0,0.5-0.1,0.7-0.2c0.2-0.1,0.4-0.2,0.5-0.4l2.3,1.2c-0.3,0.5-0.8,1-1.4,1.3
		c-0.6,0.3-1.3,0.5-2.2,0.5c-0.5,0-1-0.1-1.6-0.3c-0.5-0.2-1-0.4-1.3-0.7c-0.4-0.3-0.7-0.7-0.9-1.2s-0.3-1.1-0.3-1.7
		c0-0.6,0.1-1.2,0.3-1.6c0.2-0.5,0.5-0.9,0.9-1.2c0.4-0.3,0.8-0.6,1.3-0.8c0.5-0.2,1-0.3,1.6-0.3c0.6,0,1.1,0.1,1.6,0.3
		c0.5,0.2,0.9,0.5,1.2,0.8c0.3,0.4,0.6,0.8,0.8,1.3C107.8,53.9,107.9,54.4,107.9,55z M105.1,53.9c0-0.3-0.1-0.5-0.3-0.6
		c-0.2-0.2-0.5-0.3-0.8-0.3c-0.4,0-0.6,0.1-0.8,0.3c-0.2,0.2-0.3,0.4-0.3,0.6H105.1z"/>
	<path class="st13" d="M109,51.2h3.1v0.8h0c0.2-0.3,0.4-0.5,0.7-0.7c0.3-0.2,0.7-0.3,1.1-0.3c0.3,0,0.5,0,0.6,0.1l-0.3,2.7
		c-0.1,0-0.2,0-0.3-0.1s-0.2,0-0.3,0c-0.4,0-0.8,0.1-1,0.4c-0.3,0.2-0.4,0.5-0.4,0.9v3.6H109V51.2z"/>
</g>
</svg>
